<svg id="svg" version="1.1" xmlns="http://www.w3.org/2000/svg" xmlns:xlink="http://www.w3.org/1999/xlink" width="400" height="400" viewBox="0, 0, 400,400"><g id="svgg"><path id="path0" d="M0.000 200.000 L 0.000 400.000 200.000 400.000 L 400.000 400.000 400.000 200.000 L 400.000 0.000 200.000 0.000 L 0.000 0.000 0.000 200.000 M110.386 26.374 C 111.296 28.075,110.922 109.078,110.000 110.000 C 109.078 110.922,28.075 111.296,26.374 110.386 C 25.415 109.873,25.127 27.033,26.080 26.080 C 27.033 25.127,109.873 25.415,110.386 26.374 M134.386 26.374 C 134.614 26.799,134.800 29.504,134.800 32.385 L 134.800 37.623 140.100 37.512 L 145.400 37.400 145.512 32.026 C 145.655 25.186,145.222 25.600,152.235 25.600 C 159.197 25.600,158.800 25.190,158.800 32.385 L 158.800 37.623 164.100 37.512 L 169.400 37.400 169.512 32.026 C 169.655 25.186,169.222 25.600,176.235 25.600 C 183.446 25.600,182.800 24.342,182.800 38.374 L 182.800 49.600 188.386 49.600 C 195.173 49.600,194.800 49.205,194.800 56.385 L 194.800 61.623 200.100 61.512 L 205.400 61.400 205.512 56.026 C 205.653 49.255,205.267 49.647,211.940 49.511 L 217.400 49.400 217.506 38.033 C 217.577 30.463,217.761 26.489,218.055 26.133 C 218.415 25.700,222.942 25.600,242.235 25.600 C 270.004 25.600,266.800 24.742,266.800 32.174 C 266.800 38.947,266.952 38.800,259.988 38.800 L 254.777 38.800 254.888 44.100 L 255.000 49.400 266.400 49.503 C 280.035 49.626,278.800 48.971,278.800 56.076 C 278.800 62.961,278.963 62.800,271.994 62.800 L 266.788 62.800 266.894 74.100 L 267.000 85.400 272.392 85.512 C 275.358 85.574,277.968 85.808,278.192 86.032 C 278.450 86.290,278.673 92.848,278.800 103.920 L 279.000 121.400 284.392 121.512 C 290.955 121.649,290.557 121.251,290.800 127.918 L 291.000 133.400 302.200 133.400 L 313.400 133.400 313.512 128.026 C 313.577 124.900,313.807 122.433,314.061 122.126 C 314.410 121.706,318.059 121.600,332.235 121.600 C 353.058 121.600,350.800 120.800,350.800 128.174 C 350.800 135.356,351.874 134.800,338.000 134.800 L 326.800 134.800 326.800 152.200 L 326.800 169.600 338.386 169.600 C 352.110 169.600,350.800 168.885,350.800 176.374 L 350.800 181.600 362.386 181.600 C 373.431 181.600,373.991 181.636,374.386 182.374 C 374.643 182.853,374.800 187.338,374.800 194.174 C 374.800 207.874,375.379 206.800,368.000 206.800 L 362.800 206.800 362.800 224.000 C 362.800 244.849,363.541 242.800,356.000 242.800 L 350.800 242.800 350.800 260.200 L 350.800 277.600 362.386 277.600 C 376.092 277.600,374.800 276.916,374.800 284.174 C 374.800 290.946,374.950 290.800,368.000 290.800 L 362.800 290.800 362.800 296.000 C 362.800 302.950,362.946 302.800,356.174 302.800 C 349.232 302.800,349.600 303.159,349.600 296.386 L 349.600 290.800 344.200 290.800 L 338.800 290.800 338.800 302.200 L 338.800 313.600 344.386 313.600 C 351.159 313.600,350.800 313.232,350.800 320.174 C 350.800 326.946,350.950 326.800,344.000 326.800 L 338.800 326.800 338.800 332.200 L 338.800 337.600 344.386 337.600 C 351.173 337.600,350.800 337.205,350.800 344.385 L 350.800 349.623 356.100 349.512 L 361.400 349.400 361.506 338.033 C 361.577 330.463,361.761 326.489,362.055 326.133 C 362.853 325.172,373.858 325.387,374.386 326.374 C 374.643 326.853,374.800 331.338,374.800 338.174 C 374.800 351.874,375.379 350.800,368.000 350.800 L 362.800 350.800 362.800 362.000 C 362.800 375.874,363.356 374.800,356.174 374.800 C 348.916 374.800,349.600 376.092,349.600 362.386 L 349.600 350.800 344.200 350.800 L 338.800 350.800 338.800 362.000 C 338.800 375.874,339.356 374.800,332.174 374.800 C 324.912 374.800,325.600 376.115,325.600 362.235 C 325.600 348.341,324.934 349.660,332.026 349.512 L 337.400 349.400 337.512 344.100 L 337.623 338.800 326.212 338.800 L 314.800 338.800 314.800 350.000 C 314.800 364.398,316.398 362.800,302.000 362.800 L 290.800 362.800 290.800 368.000 C 290.800 375.621,293.774 374.800,266.174 374.800 C 251.066 374.800,242.881 374.658,242.374 374.386 C 241.636 373.991,241.600 373.431,241.600 362.386 L 241.600 350.800 236.200 350.800 L 230.800 350.800 230.800 356.000 C 230.800 363.379,231.874 362.800,218.174 362.800 C 204.392 362.800,205.600 363.416,205.600 356.386 L 205.600 350.800 200.200 350.800 L 194.800 350.800 194.800 356.000 C 194.800 363.385,195.902 362.800,182.000 362.800 L 170.800 362.800 170.800 368.000 C 170.800 374.950,170.946 374.800,164.174 374.800 C 157.217 374.800,157.600 375.182,157.600 368.235 C 157.600 361.222,157.186 361.655,164.026 361.512 L 169.400 361.400 169.506 350.100 L 169.612 338.800 164.206 338.800 L 158.800 338.800 158.800 344.000 C 158.800 350.972,158.972 350.800,152.000 350.800 L 146.800 350.800 146.800 362.000 C 146.800 372.667,146.762 373.238,146.000 374.000 C 145.083 374.917,124.009 375.261,122.374 374.386 C 121.376 373.852,121.136 326.883,122.126 326.061 C 122.433 325.807,124.900 325.577,128.026 325.512 L 133.400 325.400 133.512 320.026 C 133.653 313.255,133.267 313.647,139.940 313.511 L 145.400 313.400 145.503 290.037 C 145.575 273.888,145.741 266.512,146.043 266.148 C 146.356 265.771,148.029 265.591,151.940 265.511 L 157.400 265.400 157.512 260.100 L 157.623 254.800 152.385 254.800 C 145.205 254.800,145.600 255.173,145.600 248.386 L 145.600 242.800 128.200 242.800 L 110.800 242.800 110.800 248.200 L 110.800 253.600 116.386 253.600 C 123.173 253.600,122.800 253.207,122.800 260.374 L 122.800 265.600 128.386 265.600 C 135.416 265.600,134.800 264.392,134.800 278.174 C 134.800 291.847,135.350 290.800,128.174 290.800 C 121.232 290.800,121.600 291.159,121.600 284.386 L 121.600 278.800 104.374 278.800 C 93.264 278.800,86.873 278.653,86.374 278.386 C 85.387 277.858,85.172 266.853,86.133 266.055 C 86.489 265.761,90.463 265.577,98.033 265.506 L 109.400 265.400 109.512 260.100 L 109.623 254.800 104.385 254.800 C 97.190 254.800,97.600 255.197,97.600 248.235 C 97.600 241.222,97.186 241.655,104.026 241.512 L 109.400 241.400 109.512 236.100 L 109.623 230.800 92.212 230.800 L 74.800 230.800 74.800 236.200 L 74.800 241.600 80.386 241.600 C 87.159 241.600,86.800 241.232,86.800 248.174 C 86.800 254.946,86.950 254.800,80.000 254.800 L 74.800 254.800 74.800 260.000 C 74.800 266.950,74.946 266.800,68.174 266.800 C 60.916 266.800,61.600 268.092,61.600 254.386 L 61.600 242.800 56.374 242.800 C 49.192 242.800,49.600 243.196,49.600 236.235 C 49.600 229.222,49.186 229.655,56.026 229.512 L 61.400 229.400 61.512 224.100 L 61.623 218.800 56.385 218.800 C 49.205 218.800,49.600 219.173,49.600 212.386 L 49.600 206.800 44.200 206.800 L 38.800 206.800 38.800 212.000 C 38.800 218.950,38.946 218.800,32.174 218.800 C 29.409 218.800,26.799 218.614,26.374 218.386 C 25.375 217.851,25.132 146.886,26.126 146.061 C 26.433 145.807,28.900 145.577,32.026 145.512 L 37.400 145.400 37.512 140.100 L 37.623 134.800 32.385 134.800 C 25.193 134.800,25.600 135.192,25.600 128.266 C 25.600 124.361,25.752 122.408,26.080 122.080 C 27.028 121.132,73.874 121.417,74.386 122.374 C 74.643 122.854,74.800 127.404,74.800 134.385 L 74.800 145.623 80.100 145.512 L 85.400 145.400 85.512 140.026 C 85.653 133.255,85.267 133.647,91.940 133.511 L 97.400 133.400 97.512 128.026 C 97.655 121.186,97.222 121.600,104.235 121.600 C 111.182 121.600,110.800 121.217,110.800 128.174 C 110.800 134.946,110.950 134.800,104.000 134.800 L 98.800 134.800 98.800 140.200 L 98.800 145.600 104.386 145.600 C 111.159 145.600,110.800 145.232,110.800 152.174 C 110.800 159.356,111.874 158.800,98.000 158.800 L 86.800 158.800 86.800 164.200 L 86.800 169.600 98.386 169.600 C 112.111 169.600,110.800 168.884,110.800 176.385 L 110.800 181.623 116.100 181.512 L 121.400 181.400 121.503 152.038 C 121.576 131.156,121.734 122.520,122.052 122.138 C 122.853 121.173,133.856 121.383,134.386 122.374 C 134.643 122.854,134.800 127.404,134.800 134.385 L 134.800 145.623 140.100 145.512 L 145.400 145.400 145.503 116.038 C 145.574 95.526,145.737 86.517,146.042 86.149 C 146.356 85.771,148.024 85.591,151.940 85.511 L 157.400 85.400 157.512 80.100 L 157.623 74.800 146.212 74.800 L 134.800 74.800 134.800 80.000 C 134.800 86.950,134.946 86.800,128.174 86.800 C 120.800 86.800,121.600 89.058,121.600 68.235 C 121.600 54.059,121.706 50.410,122.126 50.061 C 122.433 49.807,124.900 49.577,128.026 49.512 L 133.400 49.400 133.512 44.100 L 133.623 38.800 128.385 38.800 C 121.193 38.800,121.600 39.192,121.600 32.266 C 121.600 28.361,121.752 26.408,122.080 26.080 C 122.988 25.172,133.882 25.432,134.386 26.374 M374.386 26.374 C 375.296 28.075,374.922 109.078,374.000 110.000 C 373.078 110.922,292.075 111.296,290.374 110.386 C 289.415 109.873,289.127 27.033,290.080 26.080 C 291.033 25.127,373.873 25.415,374.386 26.374 M38.800 68.203 L 38.800 97.605 68.100 97.503 L 97.400 97.400 97.503 68.100 L 97.605 38.800 68.203 38.800 L 38.800 38.800 38.800 68.203 M230.800 44.000 C 230.800 50.972,230.972 50.800,224.000 50.800 L 218.800 50.800 218.800 56.000 C 218.800 60.667,218.718 61.282,218.000 62.000 C 217.282 62.718,216.667 62.800,212.000 62.800 L 206.800 62.800 206.800 68.206 L 206.800 73.612 218.100 73.506 L 229.400 73.400 229.512 68.026 C 229.577 64.900,229.807 62.433,230.061 62.126 C 230.853 61.172,241.861 61.393,242.386 62.374 C 242.653 62.873,242.800 69.268,242.800 80.385 L 242.800 97.623 248.100 97.512 L 253.400 97.400 253.503 74.100 L 253.606 50.800 248.377 50.800 C 241.206 50.800,241.600 51.173,241.600 44.386 L 241.600 38.800 236.200 38.800 L 230.800 38.800 230.800 44.000 M302.897 68.100 L 303.000 97.400 332.200 97.400 L 361.400 97.400 361.503 68.100 L 361.605 38.800 332.200 38.800 L 302.795 38.800 302.897 68.100 M86.386 50.374 C 87.278 52.040,86.920 85.080,86.000 86.000 C 85.080 86.920,52.040 87.278,50.374 86.386 C 49.419 85.875,49.137 51.023,50.080 50.080 C 51.023 49.137,85.875 49.419,86.386 50.374 M350.386 50.374 C 351.278 52.040,350.920 85.080,350.000 86.000 C 349.080 86.920,316.040 87.278,314.374 86.386 C 313.419 85.875,313.137 51.023,314.080 50.080 C 315.023 49.137,349.875 49.419,350.386 50.374 M158.800 62.212 L 158.800 73.623 164.100 73.512 L 169.400 73.400 169.511 67.940 C 169.647 61.267,169.255 61.653,176.026 61.512 L 181.400 61.400 181.512 56.100 L 181.623 50.800 170.212 50.800 L 158.800 50.800 158.800 62.212 M182.800 80.212 L 182.800 85.623 188.100 85.512 L 193.400 85.400 193.512 80.100 L 193.623 74.800 188.212 74.800 L 182.800 74.800 182.800 80.212 M170.800 92.212 L 170.800 97.623 176.100 97.512 L 181.400 97.400 181.512 92.100 L 181.623 86.800 176.212 86.800 L 170.800 86.800 170.800 92.212 M206.800 98.212 L 206.800 109.623 212.100 109.512 L 217.400 109.400 217.511 103.940 C 217.647 97.267,217.255 97.653,224.026 97.512 L 229.400 97.400 229.512 92.100 L 229.623 86.800 218.212 86.800 L 206.800 86.800 206.800 98.212 M134.386 98.374 C 135.211 99.916,134.907 109.093,134.000 110.000 C 133.093 110.907,123.916 111.211,122.374 110.386 C 121.432 109.882,121.172 98.988,122.080 98.080 C 122.988 97.172,133.882 97.432,134.386 98.374 M158.800 110.212 L 158.800 121.623 164.100 121.512 L 169.400 121.400 169.506 110.100 L 169.612 98.800 164.206 98.800 L 158.800 98.800 158.800 110.212 M182.800 110.200 L 182.800 121.600 188.386 121.600 C 193.499 121.600,194.007 121.665,194.386 122.374 C 195.278 124.040,194.920 157.080,194.000 158.000 C 193.225 158.775,192.667 158.800,176.000 158.800 L 158.800 158.800 158.800 170.212 L 158.800 181.623 164.100 181.512 L 169.400 181.400 169.512 176.026 C 169.655 169.186,169.222 169.600,176.235 169.600 C 183.447 169.600,182.800 168.341,182.800 182.385 L 182.800 193.623 188.100 193.512 L 193.400 193.400 193.506 182.033 C 193.576 174.611,193.763 170.485,194.046 170.144 C 194.355 169.772,196.049 169.590,199.940 169.511 L 205.400 169.400 205.512 164.026 C 205.660 156.934,204.341 157.600,218.235 157.600 C 232.134 157.600,230.800 156.879,230.800 164.385 L 230.800 169.623 236.100 169.512 L 241.400 169.400 241.506 158.100 L 241.612 146.800 230.380 146.800 C 223.402 146.800,218.854 146.643,218.374 146.386 C 217.636 145.991,217.600 145.431,217.600 134.386 L 217.600 122.800 212.374 122.800 C 205.207 122.800,205.600 123.173,205.600 116.386 L 205.600 110.800 200.374 110.800 C 193.207 110.800,193.600 111.173,193.600 104.386 L 193.600 98.800 188.200 98.800 L 182.800 98.800 182.800 110.200 M230.800 104.212 L 230.800 109.623 236.100 109.512 L 241.400 109.400 241.512 104.100 L 241.623 98.800 236.212 98.800 L 230.800 98.800 230.800 104.212 M254.896 116.100 L 255.000 133.400 266.200 133.400 L 277.400 133.400 277.512 128.100 L 277.623 122.800 272.385 122.800 C 264.884 122.800,265.600 124.111,265.600 110.386 L 265.600 98.800 260.196 98.800 L 254.792 98.800 254.896 116.100 M218.800 116.212 L 218.800 121.623 224.100 121.512 L 229.400 121.400 229.512 116.100 L 229.623 110.800 224.212 110.800 L 218.800 110.800 218.800 116.212 M374.386 122.374 C 374.643 122.853,374.800 127.338,374.800 134.174 C 374.800 147.874,375.379 146.800,368.000 146.800 L 362.800 146.800 362.800 152.200 L 362.800 157.600 368.386 157.600 C 375.159 157.600,374.800 157.232,374.800 164.174 C 374.800 170.924,374.924 170.800,368.174 170.800 C 361.232 170.800,361.600 171.159,361.600 164.386 L 361.600 158.800 350.374 158.800 C 343.400 158.800,338.854 158.643,338.374 158.386 C 337.387 157.858,337.172 146.853,338.133 146.055 C 338.489 145.761,342.463 145.577,350.033 145.506 L 361.400 145.400 361.506 134.033 C 361.577 126.463,361.761 122.489,362.055 122.133 C 362.853 121.172,373.858 121.387,374.386 122.374 M50.800 140.212 L 50.800 145.623 56.100 145.512 L 61.400 145.400 61.512 140.100 L 61.623 134.800 56.212 134.800 L 50.800 134.800 50.800 140.212 M158.800 140.212 L 158.800 145.623 164.100 145.512 L 169.400 145.400 169.512 140.100 L 169.623 134.800 164.212 134.800 L 158.800 134.800 158.800 140.212 M38.800 158.212 L 38.800 169.623 44.100 169.512 L 49.400 169.400 49.506 158.100 L 49.612 146.800 44.206 146.800 L 38.800 146.800 38.800 158.212 M62.800 152.212 L 62.800 157.623 68.100 157.512 L 73.400 157.400 73.512 152.100 L 73.623 146.800 68.212 146.800 L 62.800 146.800 62.800 152.212 M254.888 152.100 L 255.000 157.400 260.200 157.400 L 265.400 157.400 265.512 152.100 L 265.623 146.800 260.200 146.800 L 254.777 146.800 254.888 152.100 M290.888 152.100 L 291.000 157.400 296.200 157.400 L 301.400 157.400 301.512 152.100 L 301.623 146.800 296.200 146.800 L 290.777 146.800 290.888 152.100 M266.896 176.100 L 267.000 193.400 272.400 193.507 C 279.127 193.641,278.800 193.305,278.800 200.076 C 278.800 207.525,280.808 206.800,260.174 206.800 C 249.202 206.800,242.872 206.653,242.374 206.386 C 241.393 205.861,241.172 194.853,242.126 194.061 C 242.433 193.807,244.900 193.577,248.026 193.512 L 253.400 193.400 253.506 182.100 L 253.612 170.800 248.206 170.800 L 242.800 170.800 242.800 176.000 C 242.800 182.972,242.972 182.800,236.000 182.800 L 230.800 182.800 230.800 188.000 C 230.800 195.541,232.849 194.800,212.000 194.800 L 194.800 194.800 194.800 200.200 L 194.800 205.600 206.386 205.600 C 220.110 205.600,218.800 204.885,218.800 212.374 L 218.800 217.600 224.386 217.600 C 231.173 217.600,230.800 217.207,230.800 224.374 L 230.800 229.600 236.386 229.600 C 243.421 229.600,242.800 228.363,242.800 242.374 L 242.800 253.600 254.376 253.600 C 267.936 253.600,266.536 252.879,266.800 260.000 L 267.000 265.400 278.200 265.400 L 289.400 265.400 289.511 259.940 C 289.647 253.267,289.255 253.653,296.026 253.512 L 301.400 253.400 301.506 242.033 C 301.576 234.611,301.763 230.485,302.046 230.144 C 302.355 229.772,304.049 229.590,307.940 229.511 L 313.400 229.400 313.512 224.100 L 313.623 218.800 308.385 218.800 C 301.205 218.800,301.600 219.173,301.600 212.386 L 301.600 206.800 296.374 206.800 C 288.882 206.800,289.600 208.129,289.600 194.266 C 289.600 185.695,289.729 182.431,290.080 182.080 C 290.431 181.729,293.695 181.600,302.266 181.600 C 316.129 181.600,314.800 180.882,314.800 188.374 L 314.800 193.600 320.386 193.600 C 327.421 193.600,326.800 192.363,326.800 206.374 L 326.800 217.600 332.386 217.600 C 339.173 217.600,338.800 217.205,338.800 224.385 L 338.800 229.623 344.100 229.512 L 349.400 229.400 349.506 218.100 L 349.612 206.800 344.380 206.800 C 336.884 206.800,337.600 208.110,337.600 194.386 L 337.600 182.800 332.374 182.800 C 325.207 182.800,325.600 183.173,325.600 176.386 L 325.600 170.800 308.374 170.800 C 297.264 170.800,290.873 170.653,290.374 170.386 C 289.665 170.007,289.600 169.499,289.600 164.386 L 289.600 158.800 278.196 158.800 L 266.792 158.800 266.896 176.100 M50.800 182.212 L 50.800 193.623 56.100 193.512 L 61.400 193.400 61.506 182.100 L 61.612 170.800 56.206 170.800 L 50.800 170.800 50.800 182.212 M74.800 176.212 L 74.800 181.623 80.100 181.512 L 85.400 181.400 85.512 176.100 L 85.623 170.800 80.212 170.800 L 74.800 170.800 74.800 176.212 M86.800 200.200 L 86.800 217.600 98.386 217.600 C 112.111 217.600,110.800 216.884,110.800 224.385 L 110.800 229.623 116.100 229.512 L 121.400 229.400 121.506 218.100 L 121.612 206.800 110.380 206.800 C 96.342 206.800,97.600 207.446,97.600 200.235 C 97.600 193.222,97.186 193.655,104.026 193.512 L 109.400 193.400 109.512 188.100 L 109.623 182.800 98.212 182.800 L 86.800 182.800 86.800 200.200 M122.800 194.212 L 122.800 205.623 128.100 205.512 L 133.400 205.400 133.511 199.940 C 133.590 196.049,133.772 194.355,134.144 194.046 C 134.485 193.763,138.611 193.576,146.033 193.506 L 157.400 193.400 157.512 188.100 L 157.623 182.800 140.212 182.800 L 122.800 182.800 122.800 194.212 M170.800 206.200 L 170.800 217.600 176.386 217.600 C 183.159 217.600,182.800 217.232,182.800 224.174 C 182.800 230.924,182.924 230.800,176.174 230.800 C 169.232 230.800,169.600 231.159,169.600 224.386 L 169.600 218.800 164.374 218.800 C 157.207 218.800,157.600 219.173,157.600 212.386 L 157.600 206.800 146.200 206.800 L 134.800 206.800 134.800 212.200 L 134.800 217.600 140.386 217.600 C 147.173 217.600,146.800 217.207,146.800 224.374 L 146.800 229.600 152.386 229.600 C 159.421 229.600,158.800 228.363,158.800 242.374 L 158.800 253.600 164.386 253.600 C 171.159 253.600,170.800 253.232,170.800 260.174 C 170.800 266.946,170.950 266.800,164.000 266.800 L 158.800 266.800 158.800 284.204 L 158.800 301.608 176.100 301.504 L 193.400 301.400 193.512 296.026 C 193.655 289.186,193.222 289.600,200.235 289.600 C 207.196 289.600,206.800 289.192,206.800 296.374 L 206.800 301.600 212.386 301.600 C 219.421 301.600,218.800 300.362,218.800 314.385 L 218.800 325.623 224.100 325.512 L 229.400 325.400 229.512 320.026 C 229.653 313.255,229.267 313.647,235.940 313.511 L 241.400 313.400 241.506 302.100 L 241.612 290.800 236.380 290.800 C 228.884 290.800,229.600 292.110,229.600 278.386 L 229.600 266.800 224.200 266.800 L 218.800 266.800 218.800 272.000 C 218.800 279.538,220.821 278.800,200.174 278.800 C 189.202 278.800,182.872 278.653,182.374 278.386 C 181.378 277.853,181.140 242.880,182.126 242.061 C 182.433 241.807,184.900 241.577,188.026 241.512 L 193.400 241.400 193.504 224.100 L 193.608 206.800 188.378 206.800 C 181.206 206.800,181.600 207.173,181.600 200.386 L 181.600 194.800 176.200 194.800 L 170.800 194.800 170.800 206.200 M62.800 212.212 L 62.800 217.623 68.100 217.512 L 73.400 217.400 73.512 212.100 L 73.623 206.800 68.212 206.800 L 62.800 206.800 62.800 212.212 M290.386 218.374 C 291.261 220.009,290.917 241.083,290.000 242.000 C 289.083 242.917,268.009 243.261,266.374 242.386 C 265.422 241.877,265.146 219.014,266.080 218.080 C 267.014 217.146,289.877 217.422,290.386 218.374 M206.800 224.212 L 206.800 229.623 212.100 229.512 L 217.400 229.400 217.512 224.100 L 217.623 218.800 212.212 218.800 L 206.800 218.800 206.800 224.212 M218.800 236.212 L 218.800 241.623 224.100 241.512 L 229.400 241.400 229.512 236.100 L 229.623 230.800 224.212 230.800 L 218.800 230.800 218.800 236.212 M314.800 242.000 C 314.800 255.903,315.387 254.800,307.988 254.800 L 302.777 254.800 302.888 260.100 L 303.000 265.400 320.200 265.400 L 337.400 265.400 337.506 254.100 L 337.612 242.800 332.380 242.800 C 325.206 242.800,325.600 243.173,325.600 236.386 L 325.600 230.800 320.200 230.800 L 314.800 230.800 314.800 242.000 M38.386 242.374 C 39.211 243.916,38.907 253.093,38.000 254.000 C 37.093 254.907,27.916 255.211,26.374 254.386 C 25.432 253.882,25.172 242.988,26.080 242.080 C 26.988 241.172,37.882 241.432,38.386 242.374 M206.800 260.212 L 206.800 265.623 212.100 265.512 L 217.400 265.400 217.512 260.100 L 217.623 254.800 212.212 254.800 L 206.800 254.800 206.800 260.212 M50.386 266.374 C 51.211 267.916,50.907 277.093,50.000 278.000 C 49.093 278.907,39.916 279.211,38.374 278.386 C 37.432 277.882,37.172 266.988,38.080 266.080 C 38.988 265.172,49.882 265.432,50.386 266.374 M242.800 278.206 L 242.800 289.612 254.100 289.506 L 265.400 289.400 265.512 284.100 L 265.623 278.800 260.385 278.800 C 253.205 278.800,253.600 279.173,253.600 272.386 L 253.600 266.800 248.200 266.800 L 242.800 266.800 242.800 278.206 M278.896 296.100 L 279.000 313.400 296.200 313.400 L 313.400 313.400 313.504 296.100 L 313.608 278.800 296.200 278.800 L 278.792 278.800 278.896 296.100 M110.386 290.374 C 111.296 292.075,110.922 373.078,110.000 374.000 C 109.078 374.922,28.075 375.296,26.374 374.386 C 25.415 373.873,25.127 291.033,26.080 290.080 C 27.033 289.127,109.873 289.415,110.386 290.374 M302.386 290.374 C 303.211 291.916,302.907 301.093,302.000 302.000 C 301.093 302.907,291.916 303.211,290.374 302.386 C 289.432 301.882,289.172 290.988,290.080 290.080 C 290.988 289.172,301.882 289.432,302.386 290.374 M38.800 332.203 L 38.800 361.605 68.100 361.503 L 97.400 361.400 97.503 332.100 L 97.605 302.800 68.203 302.800 L 38.800 302.800 38.800 332.203 M254.800 308.000 C 254.800 312.667,254.718 313.282,254.000 314.000 C 253.282 314.718,252.667 314.800,248.000 314.800 L 242.800 314.800 242.800 320.200 L 242.800 325.600 248.386 325.600 C 255.159 325.600,254.800 325.232,254.800 332.174 C 254.800 338.946,254.950 338.800,248.000 338.800 L 242.800 338.800 242.800 344.200 L 242.800 349.600 248.376 349.600 C 255.059 349.600,254.544 349.087,254.800 356.000 L 255.000 361.400 260.200 361.400 L 265.400 361.400 265.511 355.940 C 265.590 352.036,265.772 350.356,266.147 350.044 C 266.503 349.748,272.249 349.575,284.036 349.504 L 301.400 349.400 301.512 344.026 C 301.653 337.255,301.267 337.647,307.940 337.511 L 313.400 337.400 313.512 332.100 L 313.623 326.800 302.212 326.800 L 290.800 326.800 290.800 332.000 C 290.800 339.379,291.874 338.800,278.174 338.800 C 271.338 338.800,266.853 338.643,266.374 338.386 C 265.627 337.986,265.600 337.363,265.600 320.386 L 265.600 302.800 260.200 302.800 L 254.800 302.800 254.800 308.000 M86.386 314.374 C 87.278 316.040,86.920 349.080,86.000 350.000 C 85.080 350.920,52.040 351.278,50.374 350.386 C 49.419 349.875,49.137 315.023,50.080 314.080 C 51.023 313.137,85.875 313.419,86.386 314.374 M146.800 326.212 L 146.800 337.623 152.100 337.512 L 157.400 337.400 157.506 326.100 L 157.612 314.800 152.206 314.800 L 146.800 314.800 146.800 326.212 M170.800 326.212 L 170.800 337.623 176.100 337.512 L 181.400 337.400 181.512 332.026 C 181.655 325.186,181.222 325.600,188.235 325.600 C 195.197 325.600,194.800 325.190,194.800 332.385 L 194.800 337.623 200.100 337.512 L 205.400 337.400 205.506 326.100 L 205.612 314.800 188.206 314.800 L 170.800 314.800 170.800 326.212 M326.800 320.212 L 326.800 325.623 332.100 325.512 L 337.400 325.400 337.512 320.100 L 337.623 314.800 332.212 314.800 L 326.800 314.800 326.800 320.212 M134.800 344.212 L 134.800 349.623 140.100 349.512 L 145.400 349.400 145.512 344.100 L 145.623 338.800 140.212 338.800 L 134.800 338.800 134.800 344.212 M182.800 344.212 L 182.800 349.623 188.100 349.512 L 193.400 349.400 193.512 344.100 L 193.623 338.800 188.212 338.800 L 182.800 338.800 182.800 344.212 M206.800 344.206 L 206.800 349.612 218.100 349.506 L 229.400 349.400 229.512 344.100 L 229.623 338.800 218.212 338.800 L 206.800 338.800 206.800 344.206 " stroke="none" fill="#fcfcfc" fill-rule="evenodd"></path><path id="path1" d="M26.585 26.898 C 26.480 27.174,26.440 45.940,26.497 68.600 L 26.600 109.800 67.757 109.902 C 97.919 109.977,109.059 109.883,109.459 109.551 C 109.914 109.174,109.987 102.274,109.902 67.849 L 109.800 26.600 68.288 26.498 C 35.290 26.417,26.737 26.499,26.585 26.898 M122.579 26.910 C 122.467 27.203,122.426 29.773,122.487 32.621 L 122.600 37.800 127.842 37.911 C 134.396 38.050,134.057 38.394,133.912 31.744 L 133.800 26.600 128.292 26.489 C 123.996 26.402,122.739 26.494,122.579 26.910 M146.677 26.656 C 146.525 26.808,146.400 29.215,146.400 32.005 C 146.400 38.636,146.648 38.400,139.669 38.400 L 134.400 38.400 134.400 43.738 C 134.400 50.617,134.674 50.338,127.782 50.487 L 122.600 50.600 122.600 68.200 L 122.600 85.800 127.842 85.911 C 134.310 86.048,133.945 86.419,134.088 79.574 L 134.200 74.200 145.567 74.094 C 153.056 74.024,157.113 73.838,157.461 73.550 C 157.870 73.210,158.012 70.546,158.094 61.656 L 158.200 50.200 169.567 50.094 C 177.216 50.022,181.110 49.841,181.473 49.540 C 181.907 49.179,181.992 46.893,181.906 37.846 L 181.800 26.600 176.200 26.600 L 170.600 26.600 170.487 31.782 C 170.338 38.645,170.579 38.400,163.987 38.400 C 157.716 38.400,158.054 38.758,157.912 31.974 L 157.800 26.600 152.377 26.489 C 149.395 26.428,146.830 26.503,146.677 26.656 M218.582 26.902 C 218.475 27.182,218.435 32.448,218.494 38.605 L 218.600 49.800 223.842 49.911 C 230.310 50.048,229.945 50.419,230.088 43.574 L 230.200 38.200 235.745 38.088 C 242.779 37.947,242.351 37.550,242.489 44.340 L 242.600 49.800 247.842 49.911 C 254.310 50.048,253.945 50.419,254.088 43.574 L 254.200 38.200 259.574 38.088 C 266.419 37.945,266.048 38.310,265.911 31.842 L 265.800 26.600 242.289 26.497 C 223.561 26.415,218.738 26.497,218.582 26.902 M290.669 26.665 C 290.011 27.322,290.371 109.503,291.033 109.757 C 292.489 110.316,373.083 110.023,373.553 109.457 C 373.882 109.060,373.976 97.836,373.902 67.757 L 373.800 26.600 332.369 26.498 C 309.581 26.442,290.816 26.517,290.669 26.665 M97.920 38.480 C 98.772 39.332,98.596 96.721,97.738 97.669 C 96.906 98.588,39.392 98.832,38.480 97.920 C 37.957 97.397,37.747 38.786,38.267 38.267 C 38.786 37.747,97.397 37.957,97.920 38.480 M361.920 38.480 C 362.772 39.332,362.596 96.721,361.738 97.669 C 360.959 98.529,304.358 98.834,302.774 97.986 C 301.989 97.566,301.492 39.041,302.267 38.267 C 302.786 37.747,361.397 37.957,361.920 38.480 M50.585 50.896 C 50.478 51.173,50.438 59.140,50.496 68.600 L 50.600 85.800 67.848 85.904 C 82.095 85.990,85.175 85.913,85.552 85.458 C 85.882 85.060,85.980 80.161,85.904 67.754 L 85.800 50.600 68.289 50.496 C 54.494 50.414,50.737 50.499,50.585 50.896 M182.400 55.727 C 182.400 62.618,182.675 62.338,175.782 62.487 L 170.600 62.600 170.487 67.782 C 170.338 74.674,170.617 74.400,163.738 74.400 L 158.400 74.400 158.400 79.738 C 158.400 86.617,158.674 86.338,151.782 86.487 L 146.600 86.600 146.497 115.771 C 146.376 150.283,147.201 146.400,139.987 146.400 C 133.450 146.400,134.034 147.593,133.906 133.967 L 133.800 122.600 128.200 122.600 L 122.600 122.600 122.600 152.200 L 122.600 181.800 139.754 181.904 C 151.974 181.979,157.063 181.880,157.448 181.560 C 157.874 181.207,158.010 178.687,158.094 169.656 L 158.200 158.200 175.564 158.096 C 187.655 158.023,193.092 157.855,193.468 157.543 C 193.909 157.177,193.989 153.935,193.904 139.848 L 193.800 122.600 188.340 122.489 C 184.449 122.410,182.755 122.228,182.446 121.856 C 182.163 121.515,181.976 117.389,181.906 109.967 L 181.800 98.600 176.100 98.489 L 170.400 98.378 170.400 109.727 C 170.400 123.567,170.997 122.400,163.917 122.400 C 157.400 122.400,157.966 123.629,158.094 109.752 L 158.200 98.200 163.574 98.088 C 170.345 97.947,169.953 98.333,170.089 91.660 L 170.200 86.200 175.660 86.089 C 182.333 85.953,181.947 86.345,182.088 79.574 L 182.200 74.200 187.745 74.088 C 194.790 73.947,194.400 73.601,194.400 79.987 C 194.400 86.640,194.652 86.400,187.658 86.400 L 182.378 86.400 182.489 92.100 L 182.600 97.800 188.060 97.911 C 194.733 98.047,194.347 97.655,194.488 104.426 L 194.600 109.800 199.842 109.911 C 206.579 110.054,205.965 111.265,206.094 97.567 L 206.200 86.200 217.752 86.094 C 231.638 85.966,230.346 85.333,230.489 92.340 L 230.600 97.800 235.842 97.911 C 239.939 97.998,241.184 97.901,241.546 97.465 C 241.884 97.058,241.981 92.285,241.904 79.754 L 241.800 62.600 236.200 62.600 L 230.600 62.600 230.487 67.782 C 230.330 75.017,231.497 74.400,217.987 74.400 C 204.837 74.400,206.060 75.051,205.912 67.974 L 205.800 62.600 200.340 62.489 C 193.667 62.353,194.053 62.745,193.912 55.974 L 193.800 50.600 188.100 50.489 L 182.400 50.378 182.400 55.727 M206.579 50.910 C 206.467 51.203,206.426 53.773,206.487 56.621 L 206.600 61.800 211.842 61.911 C 218.396 62.050,218.057 62.394,217.912 55.744 L 217.800 50.600 212.292 50.489 C 207.996 50.402,206.739 50.494,206.579 50.910 M254.497 74.094 L 254.600 97.800 259.974 97.912 C 267.056 98.060,266.400 96.805,266.400 110.206 C 266.400 120.149,266.476 121.544,267.033 121.757 C 268.377 122.273,277.084 122.022,277.555 121.454 C 277.881 121.061,277.979 116.085,277.904 103.754 L 277.800 86.600 272.318 86.400 C 269.250 86.288,266.650 86.012,266.412 85.774 C 266.127 85.488,266.022 81.540,266.094 73.774 L 266.200 62.200 271.574 62.088 C 278.419 61.945,278.048 62.310,277.911 55.842 L 277.800 50.600 266.097 50.494 L 254.394 50.388 254.497 74.094 M314.585 50.896 C 314.478 51.173,314.438 59.140,314.496 68.600 L 314.600 85.800 331.848 85.904 C 346.095 85.990,349.175 85.913,349.552 85.458 C 349.882 85.060,349.980 80.161,349.904 67.754 L 349.800 50.600 332.289 50.496 C 318.494 50.414,314.737 50.499,314.585 50.896 M122.579 98.910 C 122.467 99.203,122.426 101.773,122.487 104.621 L 122.600 109.800 127.842 109.911 C 134.396 110.050,134.057 110.394,133.912 103.744 L 133.800 98.600 128.292 98.489 C 123.996 98.402,122.739 98.494,122.579 98.910 M218.579 98.910 C 218.467 99.203,218.426 101.773,218.487 104.621 L 218.600 109.800 223.842 109.911 C 230.396 110.050,230.057 110.394,229.912 103.744 L 229.800 98.600 224.292 98.489 C 219.996 98.402,218.739 98.494,218.579 98.910 M242.400 103.727 C 242.400 110.678,242.680 110.400,235.669 110.400 L 230.400 110.400 230.400 115.738 C 230.400 122.677,230.680 122.400,223.662 122.400 L 218.388 122.400 218.494 134.100 L 218.600 145.800 229.967 145.906 C 237.456 145.976,241.513 146.162,241.861 146.450 C 242.270 146.790,242.412 149.454,242.494 158.344 L 242.600 169.800 247.974 169.912 C 255.051 170.060,254.400 168.837,254.400 181.987 C 254.400 195.497,255.017 194.330,247.782 194.487 L 242.600 194.600 242.600 200.200 L 242.600 205.800 259.754 205.904 C 272.285 205.981,277.058 205.884,277.465 205.546 C 277.901 205.184,277.998 203.939,277.911 199.842 L 277.800 194.600 272.318 194.400 C 269.303 194.290,266.650 194.013,266.423 193.784 C 266.153 193.514,265.972 187.295,265.904 175.984 L 265.800 158.600 260.318 158.400 C 253.547 158.153,253.952 158.584,254.088 151.768 L 254.200 146.200 259.745 146.088 C 266.779 145.947,266.351 145.550,266.489 152.340 L 266.600 157.800 277.751 157.906 C 291.181 158.035,289.947 158.659,290.089 151.660 L 290.200 146.200 295.745 146.088 C 302.790 145.947,302.400 145.601,302.400 151.987 C 302.400 158.639,302.651 158.400,295.669 158.400 L 290.400 158.400 290.400 163.957 C 290.400 168.656,290.498 169.552,291.033 169.757 C 292.449 170.301,325.082 170.024,325.547 169.464 C 325.854 169.094,326.024 163.572,326.096 151.564 L 326.200 134.200 337.567 134.094 C 351.265 133.965,350.054 134.579,349.911 127.842 L 349.800 122.600 332.200 122.600 L 314.600 122.600 314.487 127.782 C 314.330 135.010,315.461 134.400,302.214 134.400 C 288.874 134.400,290.046 135.010,289.907 128.000 L 289.800 122.600 284.100 122.489 L 278.400 122.378 278.400 127.727 C 278.400 132.401,278.308 133.160,277.669 133.738 C 276.712 134.603,255.826 134.750,254.678 133.900 C 254.065 133.446,253.993 131.791,253.901 116.000 L 253.800 98.600 248.100 98.489 L 242.400 98.378 242.400 103.727 M206.489 116.089 L 206.600 121.800 211.842 121.911 C 218.396 122.050,218.057 122.394,217.912 115.744 L 217.800 110.600 212.089 110.489 L 206.378 110.378 206.489 116.089 M26.576 122.918 C 26.465 123.206,26.426 125.773,26.487 128.621 L 26.600 133.800 31.974 133.912 C 38.745 134.053,38.353 133.667,38.489 140.340 L 38.600 145.800 43.842 145.911 C 50.310 146.048,49.945 146.419,50.088 139.574 L 50.200 134.200 55.745 134.088 C 62.779 133.947,62.351 133.550,62.489 140.340 L 62.600 145.800 67.842 145.911 C 74.632 146.055,74.035 147.252,73.906 133.751 L 73.800 122.600 50.289 122.497 C 31.193 122.413,26.740 122.492,26.576 122.918 M98.579 122.910 C 98.467 123.203,98.426 125.773,98.487 128.621 L 98.600 133.800 103.842 133.911 C 110.396 134.050,110.057 134.394,109.912 127.744 L 109.800 122.600 104.292 122.489 C 99.996 122.402,98.739 122.494,98.579 122.910 M362.585 122.894 C 362.476 123.178,362.435 128.448,362.494 134.605 L 362.600 145.800 367.842 145.911 C 374.632 146.055,374.035 147.252,373.906 133.751 L 373.800 122.600 368.292 122.489 C 364.077 122.403,362.737 122.499,362.585 122.894 M169.920 134.480 C 170.724 135.284,170.570 144.749,169.738 145.669 C 168.925 146.566,159.341 146.781,158.480 145.920 C 157.964 145.404,157.769 134.764,158.267 134.267 C 158.764 133.769,169.404 133.964,169.920 134.480 M86.677 134.656 C 86.525 134.808,86.400 137.215,86.400 140.005 C 86.400 146.636,86.648 146.400,79.669 146.400 L 74.400 146.400 74.400 151.738 C 74.400 158.649,74.642 158.400,67.917 158.400 C 61.726 158.400,62.054 158.751,61.912 151.974 L 61.800 146.600 56.094 146.489 L 50.388 146.378 50.494 158.089 L 50.600 169.800 55.974 169.912 C 63.051 170.060,62.400 168.837,62.400 181.987 C 62.400 195.527,62.988 194.400,55.917 194.400 C 49.461 194.400,50.034 195.584,49.906 181.967 L 49.800 170.600 44.340 170.489 C 40.449 170.410,38.755 170.228,38.446 169.856 C 38.163 169.515,37.976 165.389,37.906 157.967 L 37.800 146.600 32.200 146.600 L 26.600 146.600 26.600 182.200 L 26.600 217.800 31.842 217.911 C 38.310 218.048,37.945 218.419,38.088 211.574 L 38.200 206.200 43.745 206.088 C 50.779 205.947,50.351 205.550,50.489 212.340 L 50.600 217.800 55.842 217.911 C 62.310 218.048,61.945 218.419,62.088 211.574 L 62.200 206.200 67.745 206.088 C 74.790 205.947,74.400 205.601,74.400 211.987 C 74.400 218.639,74.651 218.400,67.669 218.400 L 62.400 218.400 62.400 223.738 C 62.400 230.617,62.674 230.338,55.782 230.487 L 50.600 230.600 50.600 236.200 L 50.600 241.800 56.060 241.911 C 59.951 241.990,61.645 242.172,61.954 242.544 C 62.237 242.885,62.424 247.011,62.494 254.433 L 62.600 265.800 67.842 265.911 C 74.310 266.048,73.945 266.419,74.088 259.574 L 74.200 254.200 79.574 254.088 C 86.419 253.945,86.048 254.310,85.911 247.842 L 85.800 242.600 80.340 242.489 C 73.550 242.351,73.947 242.779,74.088 235.745 L 74.200 230.200 91.564 230.096 C 103.788 230.022,109.090 229.857,109.475 229.537 C 109.898 229.187,109.997 227.893,109.911 223.842 L 109.800 218.600 98.344 218.494 C 89.426 218.411,86.790 218.270,86.448 217.858 C 86.147 217.495,85.976 211.852,85.904 199.964 L 85.800 182.600 80.340 182.489 C 73.550 182.351,73.947 182.779,74.088 175.745 L 74.200 170.200 79.660 170.089 C 86.333 169.953,85.947 170.345,86.088 163.574 L 86.200 158.200 97.567 158.094 C 111.265 157.965,110.054 158.579,109.911 151.842 L 109.800 146.600 104.340 146.489 C 97.667 146.353,98.053 146.745,97.912 139.974 L 97.800 134.600 92.377 134.489 C 89.395 134.428,86.830 134.503,86.677 134.656 M338.577 146.915 C 338.466 147.205,338.426 149.773,338.487 152.621 L 338.600 157.800 349.751 157.906 C 363.252 158.035,362.055 158.632,361.911 151.842 L 361.800 146.600 350.290 146.494 C 341.057 146.409,338.740 146.492,338.577 146.915 M206.673 158.661 C 206.523 158.811,206.400 161.215,206.400 164.005 C 206.400 170.577,206.643 170.338,199.782 170.487 L 194.600 170.600 194.600 182.200 L 194.600 193.800 211.754 193.904 C 223.880 193.978,229.064 193.878,229.443 193.565 C 229.831 193.242,230.008 191.620,230.089 187.660 L 230.200 182.200 235.574 182.088 C 242.419 181.945,242.048 182.310,241.911 175.842 L 241.800 170.600 236.340 170.489 C 229.667 170.353,230.053 170.745,229.912 163.974 L 229.800 158.600 218.373 158.494 C 212.088 158.436,206.823 158.511,206.673 158.661 M362.489 164.089 L 362.600 169.800 367.842 169.911 C 374.396 170.050,374.057 170.394,373.912 163.744 L 373.800 158.600 368.089 158.489 L 362.378 158.378 362.489 164.089 M86.489 176.094 L 86.600 181.800 97.751 181.906 C 111.252 182.035,110.055 182.632,109.911 175.842 L 109.800 170.600 98.089 170.494 L 86.378 170.388 86.489 176.094 M170.677 170.656 C 170.525 170.808,170.400 173.215,170.400 176.005 C 170.400 182.636,170.648 182.400,163.669 182.400 L 158.400 182.400 158.400 187.738 C 158.400 194.989,159.572 194.362,145.776 194.494 L 134.600 194.600 134.600 200.200 L 134.600 205.800 145.967 205.906 C 153.389 205.976,157.515 206.163,157.856 206.446 C 158.228 206.755,158.410 208.449,158.489 212.340 L 158.600 217.800 163.842 217.911 C 170.579 218.054,169.965 219.265,170.094 205.567 L 170.200 194.200 175.660 194.089 C 182.659 193.947,182.035 195.181,181.906 181.751 L 181.800 170.600 176.377 170.489 C 173.395 170.428,170.830 170.503,170.677 170.656 M326.489 176.094 L 326.600 181.800 332.060 181.911 C 335.951 181.990,337.645 182.172,337.954 182.544 C 338.237 182.885,338.424 187.011,338.494 194.433 L 338.600 205.800 343.974 205.912 C 351.051 206.060,350.400 204.837,350.400 217.987 C 350.400 231.527,350.988 230.400,343.917 230.400 C 337.726 230.400,338.054 230.751,337.912 223.974 L 337.800 218.600 332.340 218.489 C 328.449 218.410,326.755 218.228,326.446 217.856 C 326.163 217.515,325.976 213.389,325.906 205.967 L 325.800 194.600 320.426 194.488 C 313.655 194.347,314.047 194.733,313.911 188.060 L 313.800 182.600 302.200 182.600 L 290.600 182.600 290.494 193.972 C 290.369 207.290,289.726 205.986,296.420 205.994 C 302.727 206.002,302.400 205.661,302.400 212.237 C 302.400 218.495,301.868 218.000,308.584 218.000 C 314.660 218.000,314.347 217.659,314.488 224.426 L 314.600 229.800 320.060 229.911 C 326.733 230.047,326.347 229.655,326.488 236.426 L 326.600 241.800 331.974 241.912 C 335.100 241.977,337.567 242.207,337.874 242.461 C 338.812 243.240,338.621 264.876,337.669 265.738 C 336.706 266.609,303.836 266.761,302.684 265.900 C 302.126 265.483,301.997 264.500,301.907 260.000 L 301.800 254.600 296.200 254.600 L 290.600 254.600 290.487 259.782 C 290.330 267.010,291.461 266.400,278.214 266.400 C 264.874 266.400,266.046 267.010,265.907 260.000 L 265.800 254.600 254.344 254.494 C 245.454 254.412,242.790 254.270,242.450 253.861 C 242.162 253.513,241.976 249.456,241.906 241.967 L 241.800 230.600 236.100 230.489 L 230.400 230.378 230.400 235.727 C 230.400 242.650,230.643 242.400,223.917 242.400 C 217.726 242.400,218.054 242.751,217.912 235.974 L 217.800 230.600 212.340 230.489 C 205.550 230.351,205.947 230.779,206.088 223.745 L 206.200 218.200 211.574 218.088 C 218.419 217.945,218.048 218.310,217.911 211.842 L 217.800 206.600 206.100 206.494 L 194.400 206.388 194.400 223.732 C 194.400 244.467,195.155 242.327,187.782 242.487 L 182.600 242.600 182.600 260.200 L 182.600 277.800 199.754 277.904 C 212.285 277.981,217.058 277.884,217.465 277.546 C 217.901 277.184,217.998 275.939,217.911 271.842 L 217.800 266.600 212.340 266.489 C 205.550 266.351,205.947 266.779,206.088 259.745 L 206.200 254.200 211.745 254.088 C 218.779 253.947,218.351 253.550,218.489 260.340 L 218.600 265.800 224.060 265.911 C 227.951 265.990,229.645 266.172,229.954 266.544 C 230.237 266.885,230.424 271.011,230.494 278.433 L 230.600 289.800 235.842 289.911 C 242.579 290.054,241.965 291.265,242.094 277.567 L 242.200 266.200 247.745 266.088 C 254.811 265.946,254.400 265.569,254.400 272.206 C 254.400 278.498,253.871 278.000,260.553 278.000 C 266.690 278.000,266.400 277.702,266.400 284.018 C 266.400 290.975,267.548 290.400,253.662 290.400 L 242.388 290.400 242.494 302.100 L 242.600 313.800 247.842 313.911 C 254.310 314.048,253.945 314.419,254.088 307.574 L 254.200 302.200 259.745 302.088 C 263.493 302.013,265.470 302.126,265.845 302.437 C 266.303 302.817,266.400 305.934,266.400 320.206 C 266.400 335.620,266.469 337.541,267.033 337.757 C 268.408 338.285,289.082 338.024,289.539 337.474 C 289.793 337.167,290.023 334.700,290.088 331.574 L 290.200 326.200 301.752 326.094 C 315.638 325.966,314.346 325.333,314.489 332.340 L 314.600 337.800 325.751 337.906 C 339.252 338.035,338.055 338.632,337.911 331.842 L 337.800 326.600 332.340 326.489 C 325.550 326.351,325.947 326.779,326.088 319.745 L 326.200 314.200 331.660 314.089 C 335.551 314.010,337.245 313.828,337.554 313.456 C 337.837 313.115,338.024 308.989,338.094 301.567 L 338.200 290.200 343.745 290.088 C 350.779 289.947,350.351 289.550,350.489 296.340 L 350.600 301.800 355.842 301.911 C 362.310 302.048,361.945 302.419,362.088 295.574 L 362.200 290.200 367.574 290.088 C 374.419 289.945,374.048 290.310,373.911 283.842 L 373.800 278.600 362.344 278.494 C 353.314 278.410,350.793 278.273,350.440 277.848 C 350.120 277.463,350.021 272.267,350.096 259.754 L 350.200 242.200 355.660 242.089 C 359.564 242.010,361.244 241.828,361.556 241.453 C 361.852 241.097,362.025 235.351,362.096 223.564 L 362.200 206.200 367.660 206.089 C 374.659 205.947,374.035 207.181,373.906 193.751 L 373.800 182.600 362.433 182.494 C 355.011 182.424,350.885 182.237,350.544 181.954 C 350.172 181.645,349.990 179.951,349.911 176.060 L 349.800 170.600 338.089 170.494 L 326.378 170.388 326.489 176.094 M110.400 187.727 C 110.400 194.618,110.675 194.338,103.782 194.487 L 98.600 194.600 98.600 200.200 L 98.600 205.800 109.751 205.906 C 117.715 205.982,121.061 205.881,121.457 205.552 C 121.911 205.176,121.993 203.044,121.906 193.846 L 121.800 182.600 116.100 182.489 L 110.400 182.378 110.400 187.727 M182.489 200.089 L 182.600 205.800 187.842 205.911 C 194.396 206.050,194.057 206.394,193.912 199.744 L 193.800 194.600 188.089 194.489 L 182.378 194.378 182.489 200.089 M122.400 217.727 C 122.400 231.603,123.040 230.400,115.658 230.400 L 110.378 230.400 110.489 236.100 L 110.600 241.800 127.964 241.904 C 139.751 241.975,145.497 242.148,145.853 242.444 C 146.228 242.756,146.410 244.436,146.489 248.340 L 146.600 253.800 151.842 253.911 C 158.632 254.055,158.035 255.252,157.906 241.751 L 157.800 230.600 152.426 230.488 C 145.655 230.347,146.047 230.733,145.911 224.060 L 145.800 218.600 140.340 218.489 C 133.667 218.353,134.053 218.745,133.912 211.974 L 133.800 206.600 128.100 206.489 L 122.400 206.378 122.400 217.727 M170.489 224.089 L 170.600 229.800 175.842 229.911 C 182.396 230.050,182.057 230.394,181.912 223.744 L 181.800 218.600 176.089 218.489 L 170.378 218.378 170.489 224.089 M218.489 224.089 L 218.600 229.800 223.842 229.911 C 230.396 230.050,230.057 230.394,229.912 223.744 L 229.800 218.600 224.089 218.489 L 218.378 218.378 218.489 224.089 M266.673 218.661 C 266.024 219.310,266.369 241.503,267.033 241.757 C 268.454 242.303,289.083 242.023,289.557 241.451 C 289.880 241.063,289.982 237.644,289.906 229.751 L 289.800 218.600 278.373 218.494 C 272.088 218.436,266.823 218.511,266.673 218.661 M302.585 230.894 C 302.476 231.178,302.435 236.448,302.494 242.605 L 302.600 253.800 307.842 253.911 C 314.632 254.055,314.035 255.252,313.906 241.751 L 313.800 230.600 308.292 230.489 C 304.077 230.403,302.737 230.499,302.585 230.894 M26.579 242.910 C 26.467 243.203,26.426 245.773,26.487 248.621 L 26.600 253.800 31.842 253.911 C 38.396 254.050,38.057 254.394,37.912 247.744 L 37.800 242.600 32.292 242.489 C 27.996 242.402,26.739 242.494,26.579 242.910 M98.579 242.910 C 98.467 243.203,98.426 245.773,98.487 248.621 L 98.600 253.800 103.842 253.911 C 110.396 254.050,110.057 254.394,109.912 247.744 L 109.800 242.600 104.292 242.489 C 99.996 242.402,98.739 242.494,98.579 242.910 M110.400 259.727 C 110.400 266.991,111.574 266.362,97.776 266.494 L 86.600 266.600 86.600 272.200 L 86.600 277.800 103.964 277.904 C 115.751 277.975,121.497 278.148,121.853 278.444 C 122.228 278.756,122.410 280.436,122.489 284.340 L 122.600 289.800 127.842 289.911 C 134.632 290.055,134.035 291.252,133.906 277.751 L 133.800 266.600 128.340 266.489 C 121.667 266.353,122.053 266.745,121.912 259.974 L 121.800 254.600 116.100 254.489 L 110.400 254.378 110.400 259.727 M158.489 260.089 L 158.600 265.800 163.842 265.911 C 170.396 266.050,170.057 266.394,169.912 259.744 L 169.800 254.600 164.089 254.489 L 158.378 254.378 158.489 260.089 M38.579 266.910 C 38.467 267.203,38.426 269.773,38.487 272.621 L 38.600 277.800 43.842 277.911 C 50.396 278.050,50.057 278.394,49.912 271.744 L 49.800 266.600 44.292 266.489 C 39.996 266.402,38.739 266.494,38.579 266.910 M146.588 266.889 C 146.480 267.170,146.439 277.840,146.496 290.600 L 146.600 313.800 152.060 313.911 C 155.951 313.990,157.645 314.172,157.954 314.544 C 158.237 314.885,158.424 319.011,158.494 326.433 L 158.600 337.800 163.842 337.911 C 170.579 338.054,169.965 339.265,170.094 325.567 L 170.200 314.200 187.754 314.096 C 200.267 314.021,205.463 314.120,205.848 314.440 C 206.273 314.793,206.410 317.314,206.494 326.344 L 206.600 337.800 217.967 337.906 C 225.389 337.976,229.515 338.163,229.856 338.446 C 230.228 338.755,230.410 340.449,230.489 344.340 L 230.600 349.800 235.842 349.911 C 242.310 350.048,241.945 350.419,242.088 343.574 L 242.200 338.200 247.574 338.088 C 254.419 337.945,254.048 338.310,253.911 331.842 L 253.800 326.600 248.340 326.489 C 241.667 326.353,242.053 326.745,241.912 319.974 L 241.800 314.600 236.200 314.600 L 230.600 314.600 230.487 319.782 C 230.338 326.645,230.579 326.400,223.987 326.400 C 217.450 326.400,218.034 327.593,217.906 313.967 L 217.800 302.600 212.426 302.488 C 205.655 302.347,206.047 302.733,205.911 296.060 L 205.800 290.600 200.200 290.600 L 194.600 290.600 194.487 295.782 C 194.398 299.889,194.240 301.114,193.725 301.682 C 192.863 302.635,159.237 302.809,158.453 301.864 C 158.146 301.494,157.976 295.972,157.904 283.964 L 157.800 266.600 152.292 266.489 C 148.106 266.404,146.737 266.500,146.588 266.889 M313.920 278.480 C 314.765 279.325,314.592 312.725,313.738 313.669 C 312.961 314.527,280.338 314.823,278.774 313.986 C 277.989 313.566,277.499 279.035,278.267 278.267 C 278.783 277.751,313.398 277.958,313.920 278.480 M26.585 290.898 C 26.480 291.174,26.440 309.940,26.497 332.600 L 26.600 373.800 67.757 373.902 C 97.919 373.977,109.059 373.883,109.459 373.551 C 109.914 373.174,109.987 366.274,109.902 331.849 L 109.800 290.600 68.288 290.498 C 35.290 290.417,26.737 290.499,26.585 290.898 M290.677 290.656 C 290.042 291.292,290.369 301.502,291.033 301.757 C 292.394 302.280,301.084 302.021,301.563 301.444 C 301.873 301.071,301.988 299.196,301.912 295.744 L 301.800 290.600 296.377 290.489 C 293.395 290.428,290.830 290.503,290.677 290.656 M97.920 302.480 C 98.772 303.332,98.596 360.721,97.738 361.669 C 96.906 362.588,39.392 362.832,38.480 361.920 C 37.957 361.397,37.747 302.786,38.267 302.267 C 38.786 301.747,97.397 301.957,97.920 302.480 M50.585 314.896 C 50.478 315.173,50.438 323.140,50.496 332.600 L 50.600 349.800 67.848 349.904 C 82.095 349.990,85.175 349.913,85.552 349.458 C 85.882 349.060,85.980 344.161,85.904 331.754 L 85.800 314.600 68.289 314.496 C 54.494 314.414,50.737 314.499,50.585 314.896 M134.677 314.656 C 134.525 314.808,134.400 317.215,134.400 320.005 C 134.400 326.577,134.643 326.338,127.782 326.487 L 122.600 326.600 122.600 350.200 L 122.600 373.800 133.846 373.906 C 143.044 373.993,145.176 373.911,145.552 373.457 C 145.881 373.061,145.982 369.715,145.906 361.751 L 145.800 350.600 140.340 350.489 C 133.550 350.351,133.947 350.779,134.088 343.745 L 134.200 338.200 139.660 338.089 C 146.659 337.947,146.035 339.181,145.906 325.751 L 145.800 314.600 140.377 314.489 C 137.395 314.428,134.830 314.503,134.677 314.656 M338.489 320.089 L 338.600 325.800 343.842 325.911 C 350.396 326.050,350.057 326.394,349.912 319.744 L 349.800 314.600 344.089 314.489 L 338.378 314.378 338.489 320.089 M182.579 326.910 C 182.467 327.203,182.426 329.773,182.487 332.621 L 182.600 337.800 187.842 337.911 C 194.396 338.050,194.057 338.394,193.912 331.744 L 193.800 326.600 188.292 326.489 C 183.996 326.402,182.739 326.494,182.579 326.910 M362.585 326.894 C 362.476 327.178,362.435 332.448,362.494 338.605 L 362.600 349.800 367.842 349.911 C 374.632 350.055,374.035 351.252,373.906 337.751 L 373.800 326.600 368.292 326.489 C 364.077 326.403,362.737 326.499,362.585 326.894 M146.489 344.089 L 146.600 349.800 151.842 349.911 C 158.396 350.050,158.057 350.394,157.912 343.744 L 157.800 338.600 152.089 338.489 L 146.378 338.378 146.489 344.089 M170.494 350.089 L 170.600 361.800 181.751 361.906 C 195.252 362.035,194.055 362.632,193.911 355.842 L 193.800 350.600 188.340 350.489 C 181.667 350.353,182.053 350.745,181.912 343.974 L 181.800 338.600 176.094 338.489 L 170.388 338.378 170.494 350.089 M194.489 344.089 L 194.600 349.800 199.842 349.911 C 206.396 350.050,206.057 350.394,205.912 343.744 L 205.800 338.600 200.089 338.489 L 194.378 338.378 194.489 344.089 M302.677 338.656 C 302.525 338.808,302.400 341.215,302.400 344.005 C 302.400 351.082,304.444 350.370,283.773 350.496 L 266.600 350.600 266.487 355.782 C 266.339 362.618,266.545 362.400,260.214 362.400 C 253.742 362.400,254.040 362.702,253.907 356.000 L 253.800 350.600 248.094 350.489 L 242.388 350.378 242.494 362.089 L 242.600 373.800 265.755 373.903 C 282.245 373.977,289.064 373.879,289.444 373.563 C 289.831 373.243,290.009 371.614,290.089 367.660 L 290.200 362.200 301.567 362.094 C 309.216 362.022,313.110 361.841,313.473 361.540 C 313.907 361.179,313.992 358.893,313.906 349.846 L 313.800 338.600 308.377 338.489 C 305.395 338.428,302.830 338.503,302.677 338.656 M338.489 344.089 L 338.600 349.800 343.842 349.911 C 350.396 350.050,350.057 350.394,349.912 343.744 L 349.800 338.600 344.089 338.489 L 338.378 338.378 338.489 344.089 M206.489 356.094 L 206.600 361.800 217.751 361.906 C 231.252 362.035,230.055 362.632,229.911 355.842 L 229.800 350.600 218.089 350.494 L 206.378 350.388 206.489 356.094 M326.585 350.894 C 326.476 351.178,326.435 356.448,326.494 362.605 L 326.600 373.800 331.842 373.911 C 338.632 374.055,338.035 375.252,337.906 361.751 L 337.800 350.600 332.292 350.489 C 328.077 350.403,326.737 350.499,326.585 350.894 M350.494 362.089 L 350.600 373.800 355.842 373.911 C 362.632 374.055,362.035 375.252,361.906 361.751 L 361.800 350.600 356.094 350.489 L 350.388 350.378 350.494 362.089 M158.579 362.910 C 158.467 363.203,158.426 365.773,158.487 368.621 L 158.600 373.800 163.842 373.911 C 170.396 374.050,170.057 374.394,169.912 367.744 L 169.800 362.600 164.292 362.489 C 159.996 362.402,158.739 362.494,158.579 362.910 " stroke="none" fill="#040404" fill-rule="evenodd"></path><path id="path2" d="" stroke="none" fill="#bc10080" fill-rule="evenodd"></path><path id="path3" d="" stroke="none" fill="#bc10080" fill-rule="evenodd"></path><path id="path4" d="" stroke="none" fill="#bc10080" fill-rule="evenodd"></path></g></svg>